M48
; DRILL file {KiCad (5.1.8)-1} date 12/11/20 02:40:39
; FORMAT={-:-/ absolute / inch / decimal}
; #@! TF.CreationDate,2020-12-11T02:40:39-05:00
; #@! TF.GenerationSoftware,Kicad,Pcbnew,(5.1.8)-1
FMAT,2
INCH
T1C0.0079
T2C0.0157
T3C0.0394
T4C0.0433
%
G90
G05
T1
X2.189Y-5.7087
X2.1929Y-5.1181
X2.3685Y-3.2565
X2.3885Y-3.8465
X2.61Y-3.613
X2.6285Y-3.613
X2.6485Y-3.613
X2.6635Y-3.5535
X2.6685Y-3.613
X2.6899Y-3.5535
X2.6965Y-3.8825
X2.7245Y-3.8825
X2.7245Y-3.9105
X2.7505Y-3.8825
X2.7565Y-3.9803
X2.7565Y-4.0
X2.7565Y-4.0197
X2.7762Y-4.0315
X2.7959Y-4.0315
X2.8309Y-3.5862
X2.8501Y-3.5659
X2.8781Y-3.5613
X2.8785Y-3.4215
X2.8785Y-3.5837
X2.8796Y-3.4992
X2.8885Y-3.4379
X2.8907Y-3.5413
X2.8978Y-3.4957
X2.9099Y-3.434
X2.9365Y-3.7565
X2.9383Y-3.5711
X2.9385Y-3.5914
X2.9385Y-3.6115
X2.9476Y-4.3885
X2.9585Y-3.7565
X2.9635Y-3.1085
X2.9635Y-3.1265
X2.9635Y-3.1465
X2.9635Y-3.1665
X2.9635Y-3.1865
X2.9635Y-3.2065
X2.9635Y-3.2265
X2.9648Y-4.7971
X2.9648Y-4.8189
X2.9652Y-3.9685
X2.9652Y-4.0354
X2.9694Y-4.3885
X2.9725Y-3.2425
X2.9848Y-3.9685
X2.9848Y-4.0354
X2.9905Y-3.7545
X2.9905Y-3.7725
X3.0035Y-3.1015
X3.0045Y-3.9685
X3.0045Y-4.0354
X3.0229Y-3.6145
X3.0229Y-3.8485
X3.0235Y-3.1015
X3.0242Y-3.9685
X3.0242Y-4.0354
X3.0435Y-3.1015
X3.0439Y-3.9685
X3.0439Y-4.0354
X3.0439Y-5.0433
X3.0447Y-3.6145
X3.0447Y-3.8485
X3.0635Y-3.1015
X3.0636Y-3.8228
X3.0656Y-3.6308
X3.082Y-3.6145
X3.1037Y-3.6145
X3.1185Y-3.7085
X3.1226Y-5.0433
X3.1317Y-3.8213
X3.1425Y-3.7085
X3.1535Y-3.8213
X3.1994Y-3.9764
X3.2014Y-5.0433
X3.2053Y-4.0315
X3.2125Y-3.9285
X3.225Y-4.0315
X3.2305Y-3.8265
X3.2365Y-3.9065
X3.2365Y-3.9285
X3.2365Y-3.9525
X3.2447Y-3.9843
X3.2447Y-4.0039
X3.2575Y-3.6115
X3.2605Y-3.9285
X3.2795Y-3.6115
X3.2801Y-5.0433
X3.3085Y-3.8265
X3.3589Y-5.0433
X3.4376Y-5.0433
X3.5163Y-5.0433
X3.6226Y-5.1457
X3.7014Y-5.1457
X3.7801Y-5.1457
X3.7985Y-3.2665
X3.818Y-3.2484
X3.836Y-3.229
X3.855Y-3.2106
X3.8589Y-5.1457
X3.8685Y-3.7165
X3.9376Y-5.1457
X4.0085Y-2.8765
X4.0163Y-5.1457
X4.0951Y-5.1457
X4.1585Y-3.3965
X4.1585Y-3.5465
X4.1738Y-5.1457
X4.2485Y-3.3965
X4.2736Y-4.5768
X4.2736Y-4.9606
X4.2736Y-5.0787
X4.2785Y-3.3065
X4.2821Y-3.1201
X4.3785Y-4.1165
X4.3878Y-4.9646
X4.4145Y-3.1425
X4.4385Y-4.1165
X4.5185Y-3.1445
X4.6145Y-3.1305
X5.7469Y-4.4026
X5.7469Y-4.4276
X5.7469Y-4.6276
X5.7469Y-4.6526
X5.7669Y-4.4026
X5.7669Y-4.4276
X5.7669Y-4.6276
X5.7669Y-4.6526
X5.7869Y-4.4026
X5.7869Y-4.4276
X5.7869Y-4.6276
X5.7869Y-4.6526
X5.8069Y-4.4026
X5.8069Y-4.4276
X5.8069Y-4.6276
X5.8069Y-4.6526
X5.8269Y-4.4026
X5.8269Y-4.4276
X5.8269Y-4.6276
X5.8269Y-4.6526
X5.8469Y-4.4026
X5.8469Y-4.4276
X5.8469Y-4.6276
X5.8469Y-4.6526
X5.8669Y-4.4026
X5.8669Y-4.4276
X5.8669Y-4.6276
X5.8669Y-4.6526
X5.8869Y-4.4026
X5.8869Y-4.4276
X5.8869Y-4.6276
X5.8869Y-4.6526
X5.7469Y-5.5837
X5.7469Y-5.6087
X5.7469Y-5.8087
X5.7469Y-5.8337
X5.7669Y-5.5837
X5.7669Y-5.6087
X5.7669Y-5.8087
X5.7669Y-5.8337
X5.7869Y-5.5837
X5.7869Y-5.6087
X5.7869Y-5.8087
X5.7869Y-5.8337
X5.8069Y-5.5837
X5.8069Y-5.6087
X5.8069Y-5.8087
X5.8069Y-5.8337
X5.8269Y-5.5837
X5.8269Y-5.6087
X5.8269Y-5.8087
X5.8269Y-5.8337
X5.8469Y-5.5837
X5.8469Y-5.6087
X5.8469Y-5.8087
X5.8469Y-5.8337
X5.8669Y-5.5837
X5.8669Y-5.6087
X5.8669Y-5.8087
X5.8669Y-5.8337
X5.8869Y-5.5837
X5.8869Y-5.6087
X5.8869Y-5.8087
X5.8869Y-5.8337
X1.9972Y-4.9931
X1.9972Y-5.0181
X1.9972Y-5.2181
X1.9972Y-5.2431
X2.0172Y-4.9931
X2.0172Y-5.0181
X2.0172Y-5.2181
X2.0172Y-5.2431
X2.0372Y-4.9931
X2.0372Y-5.0181
X2.0372Y-5.2181
X2.0372Y-5.2431
X2.0572Y-4.9931
X2.0572Y-5.0181
X2.0572Y-5.2181
X2.0572Y-5.2431
X2.0772Y-4.9931
X2.0772Y-5.0181
X2.0772Y-5.2181
X2.0772Y-5.2431
X2.0972Y-4.9931
X2.0972Y-5.0181
X2.0972Y-5.2181
X2.0972Y-5.2431
X2.1172Y-4.9931
X2.1172Y-5.0181
X2.1172Y-5.2181
X2.1172Y-5.2431
X2.1372Y-4.9931
X2.1372Y-5.0181
X2.1372Y-5.2181
X2.1372Y-5.2431
X1.9972Y-3.7774
X1.9972Y-3.8024
X1.9972Y-4.0024
X1.9972Y-4.0274
X2.0172Y-3.7774
X2.0172Y-3.8024
X2.0172Y-4.0024
X2.0172Y-4.0274
X2.0372Y-3.7774
X2.0372Y-3.8024
X2.0372Y-4.0024
X2.0372Y-4.0274
X2.0572Y-3.7774
X2.0572Y-3.8024
X2.0572Y-4.0024
X2.0572Y-4.0274
X2.0772Y-3.7774
X2.0772Y-3.8024
X2.0772Y-4.0024
X2.0772Y-4.0274
X2.0972Y-3.7774
X2.0972Y-3.8024
X2.0972Y-4.0024
X2.0972Y-4.0274
X2.1172Y-3.7774
X2.1172Y-3.8024
X2.1172Y-4.0024
X2.1172Y-4.0274
X2.1372Y-3.7774
X2.1372Y-3.8024
X2.1372Y-4.0024
X2.1372Y-4.0274
X2.9728Y-3.3828
X2.9728Y-3.4231
X2.9728Y-3.4635
X2.9728Y-3.5039
X2.9728Y-3.5442
X3.0131Y-3.3828
X3.0131Y-3.4231
X3.0131Y-3.4635
X3.0131Y-3.5039
X3.0131Y-3.5442
X3.0535Y-3.3828
X3.0535Y-3.4231
X3.0535Y-3.4635
X3.0535Y-3.5039
X3.0535Y-3.5442
X3.0939Y-3.3828
X3.0939Y-3.4231
X3.0939Y-3.4635
X3.0939Y-3.5039
X3.0939Y-3.5442
X3.1342Y-3.3828
X3.1342Y-3.4231
X3.1342Y-3.4635
X3.1342Y-3.5039
X3.1342Y-3.5442
X5.7469Y-4.9931
X5.7469Y-5.0181
X5.7469Y-5.2181
X5.7469Y-5.2431
X5.7669Y-4.9931
X5.7669Y-5.0181
X5.7669Y-5.2181
X5.7669Y-5.2431
X5.7869Y-4.9931
X5.7869Y-5.0181
X5.7869Y-5.2181
X5.7869Y-5.2431
X5.8069Y-4.9931
X5.8069Y-5.0181
X5.8069Y-5.2181
X5.8069Y-5.2431
X5.8269Y-4.9931
X5.8269Y-5.0181
X5.8269Y-5.2181
X5.8269Y-5.2431
X5.8469Y-4.9931
X5.8469Y-5.0181
X5.8469Y-5.2181
X5.8469Y-5.2431
X5.8669Y-4.9931
X5.8669Y-5.0181
X5.8669Y-5.2181
X5.8669Y-5.2431
X5.8869Y-4.9931
X5.8869Y-5.0181
X5.8869Y-5.2181
X5.8869Y-5.2431
X1.9972Y-5.5837
X1.9972Y-5.6087
X1.9972Y-5.8087
X1.9972Y-5.8337
X2.0172Y-5.5837
X2.0172Y-5.6087
X2.0172Y-5.8087
X2.0172Y-5.8337
X2.0372Y-5.5837
X2.0372Y-5.6087
X2.0372Y-5.8087
X2.0372Y-5.8337
X2.0572Y-5.5837
X2.0572Y-5.6087
X2.0572Y-5.8087
X2.0572Y-5.8337
X2.0772Y-5.5837
X2.0772Y-5.6087
X2.0772Y-5.8087
X2.0772Y-5.8337
X2.0972Y-5.5837
X2.0972Y-5.6087
X2.0972Y-5.8087
X2.0972Y-5.8337
X2.1172Y-5.5837
X2.1172Y-5.6087
X2.1172Y-5.8087
X2.1172Y-5.8337
X2.1372Y-5.5837
X2.1372Y-5.6087
X2.1372Y-5.8087
X2.1372Y-5.8337
X1.9972Y-3.1868
X1.9972Y-3.2118
X1.9972Y-3.4118
X1.9972Y-3.4368
X2.0172Y-3.1868
X2.0172Y-3.2118
X2.0172Y-3.4118
X2.0172Y-3.4368
X2.0372Y-3.1868
X2.0372Y-3.2118
X2.0372Y-3.4118
X2.0372Y-3.4368
X2.0572Y-3.1868
X2.0572Y-3.2118
X2.0572Y-3.4118
X2.0572Y-3.4368
X2.0772Y-3.1868
X2.0772Y-3.2118
X2.0772Y-3.4118
X2.0772Y-3.4368
X2.0972Y-3.1868
X2.0972Y-3.2118
X2.0972Y-3.4118
X2.0972Y-3.4368
X2.1172Y-3.1868
X2.1172Y-3.2118
X2.1172Y-3.4118
X2.1172Y-3.4368
X2.1372Y-3.1868
X2.1372Y-3.2118
X2.1372Y-3.4118
X2.1372Y-3.4368
T2
X2.0079Y-2.0276
X2.0079Y-3.1102
X2.0079Y-3.5039
X2.0079Y-3.6024
X2.0079Y-3.7008
X2.0079Y-4.0945
X2.0079Y-4.1929
X2.0079Y-4.2913
X2.0079Y-4.3898
X2.0079Y-4.4882
X2.0079Y-4.5866
X2.0079Y-4.685
X2.0079Y-4.7835
X2.0079Y-4.8819
X2.0079Y-5.2756
X2.0079Y-5.374
X2.0079Y-5.4724
X2.0079Y-5.8661
X2.0866Y-2.3031
X2.1063Y-2.6575
X2.1063Y-3.5039
X2.1063Y-3.6024
X2.1063Y-3.7008
X2.1063Y-4.0945
X2.1063Y-4.1929
X2.1063Y-4.2913
X2.1063Y-4.3898
X2.1063Y-4.5866
X2.1063Y-4.685
X2.1063Y-4.7835
X2.1063Y-4.8819
X2.1063Y-5.2756
X2.1063Y-5.374
X2.1063Y-5.4724
X2.1063Y-5.8661
X2.185Y-2.3031
X2.185Y-2.6575
X2.1929Y-5.065
X2.1929Y-5.1673
X2.1929Y-5.6555
X2.1929Y-5.7579
X2.2008Y-3.4134
X2.2008Y-4.0039
X2.2047Y-3.5039
X2.2047Y-3.6024
X2.2047Y-3.7008
X2.2047Y-4.0945
X2.2047Y-4.1929
X2.2047Y-4.2913
X2.2047Y-4.3898
X2.2047Y-4.4882
X2.2047Y-4.5866
X2.2047Y-4.685
X2.2047Y-4.7835
X2.2047Y-4.8819
X2.2047Y-5.2756
X2.2047Y-5.374
X2.2047Y-5.4724
X2.2047Y-5.5709
X2.2047Y-5.8661
X2.2441Y-2.6575
X2.2835Y-2.3031
X2.3031Y-3.5039
X2.3031Y-3.6024
X2.3031Y-3.7008
X2.3031Y-4.0945
X2.3031Y-4.4882
X2.3031Y-4.5866
X2.3031Y-4.685
X2.3031Y-5.8661
X2.3228Y-2.6575
X2.3622Y-4.8524
X2.3622Y-4.9508
X2.3622Y-5.0492
X2.3622Y-5.1476
X2.3622Y-5.2461
X2.3622Y-5.3445
X2.3622Y-5.4429
X2.3622Y-5.5413
X2.3819Y-2.3031
X2.3819Y-2.6575
X2.3898Y-3.4134
X2.3898Y-4.0039
X2.4016Y-4.0945
X2.4016Y-4.4882
X2.4016Y-4.5866
X2.4016Y-5.8661
X2.4022Y-4.7441
X2.4606Y-2.6575
X2.4803Y-2.3031
X2.4803Y-4.6654
X2.5Y-3.7992
X2.5Y-3.8976
X2.5Y-3.9961
X2.5Y-4.0945
X2.5Y-4.4882
X2.5Y-5.5413
X2.5Y-5.8661
X2.5787Y-2.3031
X2.5787Y-4.5669
X2.5984Y-3.7992
X2.5984Y-3.8976
X2.5984Y-3.9961
X2.5984Y-4.0945
X2.5984Y-4.1929
X2.5984Y-4.2913
X2.5984Y-4.3898
X2.5984Y-4.7835
X2.5984Y-4.8819
X2.5984Y-5.5413
X2.5984Y-5.8661
X2.6575Y-2.6575
X2.6772Y-2.3031
X2.6772Y-4.4685
X2.6969Y-4.0945
X2.6969Y-4.1929
X2.6969Y-4.2913
X2.6969Y-4.5866
X2.6969Y-4.685
X2.6969Y-4.7835
X2.6969Y-4.8819
X2.6969Y-5.5413
X2.6969Y-5.8661
X2.7559Y-2.6575
X2.7756Y-2.3031
X2.7756Y-4.3701
X2.7953Y-4.0945
X2.7953Y-4.1929
X2.7953Y-4.4882
X2.7953Y-4.5866
X2.7953Y-4.685
X2.7953Y-4.7835
X2.7953Y-4.8819
X2.7953Y-5.5413
X2.7953Y-5.8661
X2.8346Y-3.8386
X2.874Y-2.3031
X2.874Y-2.6575
X2.874Y-4.2717
X2.8937Y-4.3898
X2.8937Y-4.4882
X2.8937Y-4.8819
X2.8937Y-5.5413
X2.8937Y-5.8661
X2.9528Y-3.8386
X2.9724Y-2.3031
X2.9724Y-4.1732
X2.9921Y-2.6575
X2.9921Y-4.0945
X2.9921Y-5.5413
X2.9921Y-5.8661
X3.0315Y-4.3504
X3.0315Y-4.5472
X3.04Y-4.7756
X3.0709Y-2.3031
X3.0906Y-2.6575
X3.0906Y-5.5413
X3.0906Y-5.8661
X3.1299Y-4.252
X3.1299Y-4.4488
X3.14Y-4.7756
X3.1693Y-2.3031
X3.189Y-5.5413
X3.189Y-5.8661
X3.2283Y-2.6575
X3.2283Y-4.1535
X3.2283Y-4.3504
X3.24Y-4.7756
X3.2677Y-2.3031
X3.2874Y-5.5413
X3.2874Y-5.8661
X3.3268Y-4.0551
X3.3268Y-4.252
X3.34Y-4.7756
X3.3465Y-2.6575
X3.3661Y-2.3031
X3.3661Y-3.622
X3.3858Y-5.5413
X3.3858Y-5.8661
X3.4252Y-3.9567
X3.4252Y-4.1535
X3.44Y-4.7756
X3.4646Y-2.3031
X3.4843Y-2.6575
X3.4843Y-5.5413
X3.4843Y-5.8661
X3.5039Y-3.622
X3.5236Y-3.8583
X3.5236Y-4.0551
X3.5551Y-4.4685
X3.5551Y-4.5079
X3.5551Y-5.0197
X3.5551Y-5.0591
X3.563Y-2.3031
X3.5827Y-2.6575
X3.5827Y-5.5413
X3.5827Y-5.8661
X3.622Y-3.7598
X3.622Y-3.9567
X3.6231Y-5.4304
X3.6231Y-5.4904
X3.6231Y-5.5504
X3.6231Y-5.6104
X3.6231Y-5.6604
X3.6233Y-5.3695
X3.6233Y-5.7011
X3.6437Y-4.6102
X3.6437Y-4.6575
X3.6437Y-4.7165
X3.6437Y-4.7756
X3.6437Y-4.8346
X3.6437Y-4.878
X3.6437Y-4.9213
X3.6614Y-2.3031
X3.6811Y-5.8661
X3.7008Y-2.6575
X3.7126Y-5.1772
X3.7126Y-5.2165
X3.7205Y-3.6614
X3.7205Y-3.8583
X3.7205Y-4.4035
X3.7205Y-4.4449
X3.7562Y-5.1772
X3.7562Y-5.2165
X3.7598Y-2.3031
X3.7659Y-4.4035
X3.7659Y-4.4449
X3.7769Y-5.3695
X3.7795Y-5.8661
X3.7808Y-5.7278
X3.7841Y-5.5276
X3.7841Y-5.5669
X3.7919Y-4.7559
X3.7919Y-4.7953
X3.7933Y-4.9409
X3.7992Y-2.6575
X3.8012Y-4.5984
X3.8189Y-3.563
X3.8189Y-3.7598
X3.8583Y-2.3031
X3.878Y-3.3465
X3.878Y-5.8661
X3.9567Y-2.3031
X3.9567Y-3.2677
X3.973Y-5.5276
X3.973Y-5.5669
X3.9764Y-2.6575
X3.9764Y-5.8661
X3.9888Y-4.7559
X3.9888Y-4.7953
X4.0157Y-3.3661
X4.0354Y-3.189
X4.0396Y-5.1731
X4.0396Y-5.2146
X4.0551Y-2.3031
X4.0748Y-5.8661
X4.0793Y-4.4547
X4.0793Y-4.4134
X4.084Y-5.1731
X4.084Y-5.2146
X4.1142Y-3.2677
X4.1201Y-4.4134
X4.1201Y-4.4547
X4.1256Y-5.4294
X4.1256Y-5.4894
X4.1256Y-5.5494
X4.1256Y-5.6094
X4.1256Y-5.6694
X4.1476Y-4.6535
X4.1476Y-4.7126
X4.1476Y-4.7717
X4.1476Y-4.8307
X4.1476Y-4.8937
X4.1634Y-2.3819
X4.1634Y-2.4803
X4.1634Y-2.5787
X4.1634Y-2.6772
X4.1634Y-2.7756
X4.1634Y-2.874
X4.1634Y-2.9724
X4.1634Y-3.0709
X4.1634Y-3.1693
X4.1732Y-5.8661
X4.1831Y-4.4665
X4.1831Y-5.0689
X4.2323Y-2.2047
X4.2402Y-5.002
X4.252Y-2.7067
X4.2618Y-3.1594
X4.2717Y-2.0079
X4.2717Y-4.5059
X4.2717Y-4.6555
X4.2717Y-4.7539
X4.2717Y-4.8524
X4.2717Y-5.1358
X4.2717Y-5.374
X4.2717Y-5.4724
X4.2717Y-5.6693
X4.2717Y-5.7677
X4.2717Y-5.8661
X4.3031Y-3.3583
X4.311Y-4.9232
X4.3701Y-2.0079
X4.3701Y-5.8661
X4.3707Y-3.6516
X4.3894Y-3.8113
X4.3894Y-3.8507
X4.3894Y-3.8901
X4.4081Y-3.0335
X4.4081Y-3.0748
X4.41Y-3.6516
X4.4376Y-3.0531
X4.4512Y-2.6555
X4.4593Y-2.3524
X4.4685Y-2.0079
X4.4685Y-5.8661
X4.5012Y-2.7055
X4.5028Y-2.6476
X4.5261Y-3.901
X4.5655Y-3.901
X4.5669Y-2.0079
X4.5669Y-5.1181
X4.5669Y-5.8661
X4.6621Y-4.5531
X4.6621Y-4.6102
X4.6621Y-4.6713
X4.6621Y-5.5531
X4.6621Y-5.6102
X4.6621Y-5.6713
X4.6654Y-2.0079
X4.6654Y-4.2913
X4.6654Y-5.8661
X4.7289Y-3.6929
X4.7289Y-3.7323
X4.7638Y-2.0079
X4.7638Y-4.2913
X4.7638Y-5.1181
X4.7638Y-5.8661
X4.7998Y-3.7874
X4.8121Y-4.6102
X4.8121Y-5.6102
X4.8425Y-3.0315
X4.8512Y-2.7055
X4.8622Y-2.0079
X4.8622Y-4.2913
X4.8622Y-5.1181
X4.8622Y-5.8661
X4.8864Y-3.6929
X4.8864Y-3.7323
X4.9213Y-3.0315
X4.9213Y-3.1102
X4.9232Y-3.1988
X4.9232Y-3.2382
X4.9232Y-3.2776
X4.9232Y-3.3169
X4.9301Y-4.9102
X4.9301Y-5.3102
X4.9409Y-2.5394
X4.9409Y-2.6181
X4.9409Y-2.6969
X4.9409Y-4.0354
X4.9606Y-2.0079
X4.9606Y-4.2913
X4.9606Y-5.1181
X4.9606Y-5.8661
X4.9803Y-2.2047
X4.9871Y-4.9102
X4.9871Y-5.3102
X5.0203Y-2.3031
X5.0203Y-2.3425
X5.0394Y-3.9567
X5.0423Y-3.2978
X5.0482Y-4.9102
X5.0482Y-5.3102
X5.0591Y-2.0079
X5.0591Y-5.1181
X5.0591Y-5.8661
X5.0846Y-3.3165
X5.0984Y-2.2047
X5.1181Y-3.878
X5.1181Y-4.0354
X5.1575Y-2.0079
X5.1575Y-5.1181
X5.1575Y-5.8661
X5.1621Y-4.6102
X5.1621Y-5.6102
X5.1772Y-4.8976
X5.1772Y-5.3268
X5.1778Y-2.3031
X5.1778Y-2.3425
X5.1969Y-2.2047
X5.1969Y-3.7992
X5.1969Y-3.937
X5.2012Y-2.5305
X5.2368Y-3.2559
X5.2368Y-3.2913
X5.2512Y-2.2305
X5.2559Y-2.0079
X5.2559Y-4.2913
X5.2559Y-4.7835
X5.2559Y-5.1181
X5.2559Y-5.374
X5.2559Y-5.8661
X5.2722Y-3.2913
X5.3352Y-3.3268
X5.3352Y-4.0748
X5.3543Y-2.0079
X5.3543Y-4.2913
X5.3543Y-4.7835
X5.3543Y-5.374
X5.3543Y-5.8661
X5.3549Y-2.7362
X5.3549Y-2.7953
X5.3549Y-2.8543
X5.3549Y-2.9134
X5.3707Y-4.0748
X5.3746Y-2.2835
X5.3746Y-2.3425
X5.4061Y-4.0748
X5.4528Y-2.0079
X5.4528Y-4.2913
X5.4528Y-4.7835
X5.4528Y-5.374
X5.4528Y-5.8661
X5.4882Y-5.2283
X5.4927Y-2.5197
X5.4927Y-3.8287
X5.4927Y-3.9173
X5.5321Y-2.2835
X5.5321Y-2.3425
X5.5321Y-2.7559
X5.5321Y-2.9134
X5.5512Y-2.0079
X5.5512Y-4.2913
X5.5512Y-4.7835
X5.5512Y-5.374
X5.5512Y-5.8661
X5.6108Y-2.7559
X5.6108Y-2.9134
X5.6299Y-2.4213
X5.6299Y-2.5197
X5.6496Y-2.0079
X5.6496Y-4.2913
X5.6496Y-4.7835
X5.6496Y-5.374
X5.6496Y-5.8661
X5.6732Y-5.2283
X5.748Y-2.0079
X5.748Y-4.2913
X5.748Y-4.7835
X5.748Y-5.374
X5.748Y-5.8661
X5.8465Y-2.0276
X5.8465Y-2.126
X5.8465Y-2.2244
X5.8465Y-2.3228
X5.8465Y-2.4213
X5.8465Y-2.5197
X5.8465Y-2.6181
X5.8465Y-2.7165
X5.8465Y-3.2087
X5.8465Y-3.3071
X5.8465Y-3.4055
X5.8465Y-3.5039
X5.8465Y-3.6024
X5.8465Y-3.7008
X5.8465Y-3.8976
X5.8465Y-3.9961
X5.8465Y-4.0945
X5.8465Y-4.1929
X5.8465Y-4.2913
X5.8465Y-4.685
X5.8465Y-4.7835
X5.8465Y-4.8819
X5.8465Y-5.2756
X5.8465Y-5.374
X5.8465Y-5.4724
X5.8465Y-5.8661
X4.9083Y-5.2117
X4.9083Y-5.4086
X4.9871Y-5.4086
X5.0658Y-5.2117
X5.0658Y-5.4086
X4.9083Y-4.8117
X4.9083Y-5.0086
X4.9871Y-4.8117
X5.0658Y-4.8117
X5.0658Y-5.0086
X4.5637Y-4.5314
X4.5637Y-4.6889
X4.7605Y-4.5314
X4.7605Y-4.6102
X4.7605Y-4.6889
X4.5637Y-5.5314
X4.5637Y-5.6889
X4.7605Y-5.5314
X4.7605Y-5.6102
X4.7605Y-5.6889
T3
X2.1059Y-2.4366
X2.1059Y-2.5366
X2.2059Y-2.4366
X2.2059Y-2.5366
X2.3059Y-2.4366
X2.3059Y-2.5366
X2.4059Y-2.4366
X2.4059Y-2.5366
X2.5059Y-2.4366
X2.5059Y-2.5366
X2.6059Y-2.4366
X2.6059Y-2.5366
X2.7059Y-2.4366
X2.7059Y-2.5366
X2.8059Y-2.4366
X2.8059Y-2.5366
X2.9059Y-2.4366
X2.9059Y-2.5366
X3.0059Y-2.4366
X3.0059Y-2.5366
X3.1059Y-2.4366
X3.1059Y-2.5366
X3.2059Y-2.4366
X3.2059Y-2.5366
X3.3059Y-2.4366
X3.3059Y-2.5366
X3.4059Y-2.4366
X3.4059Y-2.5366
X3.5059Y-2.4366
X3.5059Y-2.5366
X3.6059Y-2.4366
X3.6059Y-2.5366
X3.7059Y-2.4366
X3.7059Y-2.5366
X3.8059Y-2.4366
X3.8059Y-2.5366
X3.9059Y-2.4366
X3.9059Y-2.5366
X4.0059Y-2.4366
X4.0059Y-2.5366
X2.6735Y-3.2885
X5.7677Y-2.0866
X5.7677Y-2.5866
X5.3543Y-5.748
X4.6654Y-5.1181
X2.6485Y-4.9465
X2.1063Y-2.9685
X2.2063Y-2.9685
X2.3063Y-2.9685
X2.4063Y-2.9685
X2.5063Y-2.9685
X2.6063Y-2.9685
X2.7063Y-2.9685
X2.8063Y-2.9685
X2.9063Y-2.9685
X3.0063Y-2.9685
X3.1063Y-2.9685
X3.2063Y-2.9685
X3.3063Y-2.9685
X3.4063Y-2.9685
X3.5063Y-2.9685
X3.6063Y-2.9685
X3.7063Y-2.9685
X3.8063Y-2.9685
X3.9063Y-2.9685
X4.0063Y-2.9685
X2.1059Y-2.0866
X2.1059Y-2.1866
X2.2059Y-2.0866
X2.2059Y-2.1866
X2.3059Y-2.0866
X2.3059Y-2.1866
X2.4059Y-2.0866
X2.4059Y-2.1866
X2.5059Y-2.0866
X2.5059Y-2.1866
X2.6059Y-2.0866
X2.6059Y-2.1866
X2.7059Y-2.0866
X2.7059Y-2.1866
X2.8059Y-2.0866
X2.8059Y-2.1866
X2.9059Y-2.0866
X2.9059Y-2.1866
X3.0059Y-2.0866
X3.0059Y-2.1866
X3.1059Y-2.0866
X3.1059Y-2.1866
X3.2059Y-2.0866
X3.2059Y-2.1866
X3.3059Y-2.0866
X3.3059Y-2.1866
X3.4059Y-2.0866
X3.4059Y-2.1866
X3.5059Y-2.0866
X3.5059Y-2.1866
X3.6059Y-2.0866
X3.6059Y-2.1866
X3.7059Y-2.0866
X3.7059Y-2.1866
X3.8059Y-2.0866
X3.8059Y-2.1866
X3.9059Y-2.0866
X3.9059Y-2.1866
X4.0059Y-2.0866
X4.0059Y-2.1866
X3.6614Y-4.0748
X2.1063Y-4.4882
X5.1378Y-4.2913
T4
X4.0226Y-3.6993
X4.0226Y-3.8765
X4.2785Y-3.6993
X4.2785Y-3.8765
X4.0226Y-4.1193
X4.0226Y-4.2965
X4.2785Y-4.1193
X4.2785Y-4.2965
T3
G00X5.4985Y-3.5559
M15
G01X5.4985Y-3.4771
M16
G05
G00X5.656Y-3.3315
M15
G01X5.5772Y-3.3315
M16
G05
G00X5.7347Y-3.5559
M15
G01X5.7347Y-3.4771
M16
G05
T0
M30
