%TF.GenerationSoftware,KiCad,Pcbnew,(5.1.8)-1*%
%TF.CreationDate,2020-12-11T02:40:48-05:00*%
%TF.ProjectId,iq_siggen,69715f73-6967-4676-956e-2e6b69636164,v01*%
%TF.SameCoordinates,Original*%
%TF.FileFunction,Copper,L4,Bot*%
%TF.FilePolarity,Positive*%
%FSLAX46Y46*%
G04 Gerber Fmt 4.6, Leading zero omitted, Abs format (unit mm)*
G04 Created by KiCad (PCBNEW (5.1.8)-1) date 2020-12-11 02:40:48*
%MOMM*%
%LPD*%
G01*
G04 APERTURE LIST*
%TA.AperFunction,SMDPad,CuDef*%
%ADD10R,0.293370X0.350000*%
%TD*%
%TA.AperFunction,SMDPad,CuDef*%
%ADD11R,0.650000X0.293370*%
%TD*%
%TA.AperFunction,ComponentPad*%
%ADD12R,3.500000X3.500000*%
%TD*%
%TA.AperFunction,ComponentPad*%
%ADD13C,2.000000*%
%TD*%
%TA.AperFunction,ComponentPad*%
%ADD14O,1.700000X1.700000*%
%TD*%
%TA.AperFunction,ComponentPad*%
%ADD15R,1.700000X1.700000*%
%TD*%
%TA.AperFunction,ComponentPad*%
%ADD16C,0.500000*%
%TD*%
%TA.AperFunction,SMDPad,CuDef*%
%ADD17R,4.600000X4.600000*%
%TD*%
%TA.AperFunction,ComponentPad*%
%ADD18C,0.400000*%
%TD*%
%TA.AperFunction,SMDPad,CuDef*%
%ADD19R,4.200000X1.350000*%
%TD*%
%TA.AperFunction,ComponentPad*%
%ADD20O,2.000000X2.000000*%
%TD*%
%TA.AperFunction,ComponentPad*%
%ADD21C,0.800000*%
%TD*%
%TA.AperFunction,ViaPad*%
%ADD22C,0.800000*%
%TD*%
%TA.AperFunction,ViaPad*%
%ADD23C,0.400000*%
%TD*%
%TA.AperFunction,ViaPad*%
%ADD24C,0.450000*%
%TD*%
%TA.AperFunction,Conductor*%
%ADD25C,2.000000*%
%TD*%
%TA.AperFunction,Conductor*%
%ADD26C,1.800000*%
%TD*%
%TA.AperFunction,Conductor*%
%ADD27C,1.000000*%
%TD*%
%TA.AperFunction,Conductor*%
%ADD28C,0.250000*%
%TD*%
%TA.AperFunction,Conductor*%
%ADD29C,0.146812*%
%TD*%
%TA.AperFunction,Conductor*%
%ADD30C,0.293370*%
%TD*%
%TA.AperFunction,Conductor*%
%ADD31C,0.205232*%
%TD*%
%TA.AperFunction,Conductor*%
%ADD32C,0.500000*%
%TD*%
G04 APERTURE END LIST*
D10*
%TO.P,JP5,1*%
%TO.N,Net-(JP5-Pad1)*%
X112120000Y-144250000D03*
%TO.P,JP5,3*%
%TO.N,/mixer/LO_Q_EXT*%
X112120000Y-145112200D03*
D11*
%TO.P,JP5,2*%
%TO.N,/mixer/LO_Q*%
X112300000Y-144680000D03*
%TD*%
D10*
%TO.P,JP4,1*%
%TO.N,Net-(JP4-Pad1)*%
X112120000Y-118500000D03*
%TO.P,JP4,3*%
%TO.N,/mixer/LO_I_EXT*%
X112120000Y-119362200D03*
D11*
%TO.P,JP4,2*%
%TO.N,/mixer/LO_I*%
X112300000Y-118930000D03*
%TD*%
%TO.P,J10,3*%
%TO.N,N/C*%
%TA.AperFunction,ComponentPad*%
G36*
G01*
X144412000Y-83744200D02*
X144412000Y-85494200D01*
G75*
G02*
X143537000Y-86369200I-875000J0D01*
G01*
X141787000Y-86369200D01*
G75*
G02*
X140912000Y-85494200I0J875000D01*
G01*
X140912000Y-83744200D01*
G75*
G02*
X141787000Y-82869200I875000J0D01*
G01*
X143537000Y-82869200D01*
G75*
G02*
X144412000Y-83744200I0J-875000D01*
G01*
G37*
%TD.AperFunction*%
%TO.P,J10,2*%
%TO.N,GNDA*%
%TA.AperFunction,ComponentPad*%
G36*
G01*
X147162000Y-88319200D02*
X147162000Y-90319200D01*
G75*
G02*
X146412000Y-91069200I-750000J0D01*
G01*
X144912000Y-91069200D01*
G75*
G02*
X144162000Y-90319200I0J750000D01*
G01*
X144162000Y-88319200D01*
G75*
G02*
X144912000Y-87569200I750000J0D01*
G01*
X146412000Y-87569200D01*
G75*
G02*
X147162000Y-88319200I0J-750000D01*
G01*
G37*
%TD.AperFunction*%
D12*
%TO.P,J10,1*%
%TO.N,+5V*%
X139662000Y-89319200D03*
%TD*%
D13*
%TO.P,SW2,1*%
%TO.N,/SW1*%
X102174000Y-109131200D03*
%TO.P,SW2,2*%
%TO.N,/VCCIO0*%
X102174000Y-104631200D03*
%TO.P,SW2,1*%
%TO.N,/SW1*%
X108674000Y-109131200D03*
%TO.P,SW2,2*%
%TO.N,/VCCIO0*%
X108674000Y-104631200D03*
%TD*%
%TO.P,SW1,1*%
%TO.N,/SW0*%
X102174000Y-98463200D03*
%TO.P,SW1,2*%
%TO.N,/VCCIO0*%
X102174000Y-93963200D03*
%TO.P,SW1,1*%
%TO.N,/SW0*%
X108674000Y-98463200D03*
%TO.P,SW1,2*%
%TO.N,/VCCIO0*%
X108674000Y-93963200D03*
%TD*%
D14*
%TO.P,J2,40*%
%TO.N,N/C*%
X53490000Y-64430000D03*
%TO.P,J2,39*%
%TO.N,Net-(J2-Pad39)*%
X53490000Y-61890000D03*
%TO.P,J2,38*%
%TO.N,Net-(J2-Pad38)*%
X56030000Y-64430000D03*
%TO.P,J2,37*%
%TO.N,Net-(J2-Pad37)*%
X56030000Y-61890000D03*
%TO.P,J2,36*%
%TO.N,N/C*%
X58570000Y-64430000D03*
%TO.P,J2,35*%
%TO.N,Net-(J2-Pad35)*%
X58570000Y-61890000D03*
%TO.P,J2,34*%
%TO.N,Net-(J2-Pad34)*%
X61110000Y-64430000D03*
%TO.P,J2,33*%
%TO.N,Net-(J2-Pad33)*%
X61110000Y-61890000D03*
%TO.P,J2,32*%
%TO.N,GNDA*%
X63650000Y-64430000D03*
%TO.P,J2,31*%
X63650000Y-61890000D03*
%TO.P,J2,30*%
%TO.N,Net-(J2-Pad30)*%
X66190000Y-64430000D03*
%TO.P,J2,29*%
%TO.N,Net-(J2-Pad29)*%
X66190000Y-61890000D03*
%TO.P,J2,28*%
%TO.N,Net-(J2-Pad28)*%
X68730000Y-64430000D03*
%TO.P,J2,27*%
%TO.N,N/C*%
X68730000Y-61890000D03*
%TO.P,J2,26*%
%TO.N,Net-(J2-Pad26)*%
X71270000Y-64430000D03*
%TO.P,J2,25*%
%TO.N,/CLK_EXT_IN*%
X71270000Y-61890000D03*
%TO.P,J2,24*%
%TO.N,Net-(J2-Pad24)*%
X73810000Y-64430000D03*
%TO.P,J2,23*%
%TO.N,N/C*%
X73810000Y-61890000D03*
%TO.P,J2,22*%
%TO.N,GNDA*%
X76350000Y-64430000D03*
%TO.P,J2,21*%
X76350000Y-61890000D03*
%TO.P,J2,20*%
%TO.N,Net-(J2-Pad20)*%
X78890000Y-64430000D03*
%TO.P,J2,19*%
%TO.N,/CLK_OUT*%
X78890000Y-61890000D03*
%TO.P,J2,18*%
%TO.N,N/C*%
X81430000Y-64430000D03*
%TO.P,J2,17*%
%TO.N,Net-(J2-Pad17)*%
X81430000Y-61890000D03*
%TO.P,J2,16*%
%TO.N,Net-(J2-Pad16)*%
X83970000Y-64430000D03*
%TO.P,J2,15*%
%TO.N,Net-(J2-Pad15)*%
X83970000Y-61890000D03*
%TO.P,J2,14*%
%TO.N,Net-(J2-Pad14)*%
X86510000Y-64430000D03*
%TO.P,J2,13*%
%TO.N,N/C*%
X86510000Y-61890000D03*
%TO.P,J2,12*%
%TO.N,GNDA*%
X89050000Y-64430000D03*
%TO.P,J2,11*%
X89050000Y-61890000D03*
%TO.P,J2,10*%
%TO.N,Net-(J2-Pad10)*%
X91590000Y-64430000D03*
%TO.P,J2,9*%
%TO.N,N/C*%
X91590000Y-61890000D03*
%TO.P,J2,8*%
%TO.N,Net-(J2-Pad8)*%
X94130000Y-64430000D03*
%TO.P,J2,7*%
%TO.N,Net-(J2-Pad7)*%
X94130000Y-61890000D03*
%TO.P,J2,6*%
%TO.N,Net-(J2-Pad6)*%
X96670000Y-64430000D03*
%TO.P,J2,5*%
%TO.N,Net-(J2-Pad5)*%
X96670000Y-61890000D03*
%TO.P,J2,4*%
%TO.N,N/C*%
X99210000Y-64430000D03*
%TO.P,J2,3*%
X99210000Y-61890000D03*
%TO.P,J2,2*%
%TO.N,/VCCIO1*%
X101750000Y-64430000D03*
D15*
%TO.P,J2,1*%
X101750000Y-61890000D03*
%TD*%
D16*
%TO.P,U6,41*%
%TO.N,GNDA*%
X78584000Y-88998000D03*
X79609000Y-88998000D03*
%TO.P,U6,40*%
X79609000Y-90023000D03*
%TO.P,U6,36*%
X77559000Y-90023000D03*
%TO.P,U6,41*%
X79609000Y-87973000D03*
X78584000Y-87973000D03*
X77559000Y-87973000D03*
X76534000Y-88998000D03*
X76534000Y-87973000D03*
X75509000Y-87973000D03*
X77559000Y-86948000D03*
X76534000Y-86948000D03*
%TO.P,U6,29*%
X75509000Y-90023000D03*
%TO.P,U6,41*%
X78584000Y-86948000D03*
X78584000Y-90023000D03*
X75509000Y-88998000D03*
X76534000Y-90023000D03*
X77559000Y-88998000D03*
X79609000Y-86948000D03*
X75509000Y-86948000D03*
X79609000Y-85923000D03*
%TO.P,U6,17*%
X76534000Y-85923000D03*
D17*
%TO.P,U6,41*%
X77559000Y-87973000D03*
D16*
X75509000Y-85923000D03*
X78584000Y-85923000D03*
X77559000Y-85923000D03*
%TD*%
D18*
%TO.P,J11,2*%
%TO.N,GNDA*%
X148512000Y-132540000D03*
X146988000Y-132540000D03*
X147496000Y-132540000D03*
X146480000Y-132540000D03*
X149020000Y-132540000D03*
X149528000Y-132540000D03*
X148004000Y-132540000D03*
X145972000Y-132540000D03*
X148512000Y-127460000D03*
X146988000Y-127460000D03*
X147496000Y-127460000D03*
X146480000Y-127460000D03*
X149020000Y-127460000D03*
X149528000Y-127460000D03*
X148004000Y-127460000D03*
X145972000Y-127460000D03*
X148512000Y-126825000D03*
X146988000Y-126825000D03*
X147496000Y-126825000D03*
X146480000Y-126825000D03*
X149020000Y-126825000D03*
X149528000Y-126825000D03*
X148004000Y-126825000D03*
X145972000Y-126825000D03*
X149020000Y-133175000D03*
X149528000Y-133175000D03*
X148004000Y-133175000D03*
X148512000Y-133175000D03*
X146988000Y-133175000D03*
X147496000Y-133175000D03*
X146480000Y-133175000D03*
X145972000Y-133175000D03*
D19*
X147750000Y-127175000D03*
X147750000Y-132825000D03*
%TD*%
D18*
%TO.P,J19,2*%
%TO.N,GNDA*%
X51746000Y-142460000D03*
X53270000Y-142460000D03*
X52762000Y-142460000D03*
X53778000Y-142460000D03*
X51238000Y-142460000D03*
X50730000Y-142460000D03*
X52254000Y-142460000D03*
X54286000Y-142460000D03*
X51746000Y-147540000D03*
X53270000Y-147540000D03*
X52762000Y-147540000D03*
X53778000Y-147540000D03*
X51238000Y-147540000D03*
X50730000Y-147540000D03*
X52254000Y-147540000D03*
X54286000Y-147540000D03*
X51746000Y-148175000D03*
X53270000Y-148175000D03*
X52762000Y-148175000D03*
X53778000Y-148175000D03*
X51238000Y-148175000D03*
X50730000Y-148175000D03*
X52254000Y-148175000D03*
X54286000Y-148175000D03*
X51238000Y-141825000D03*
X50730000Y-141825000D03*
X52254000Y-141825000D03*
X51746000Y-141825000D03*
X53270000Y-141825000D03*
X52762000Y-141825000D03*
X53778000Y-141825000D03*
X54286000Y-141825000D03*
D19*
X52508000Y-147825000D03*
X52508000Y-142175000D03*
%TD*%
D18*
%TO.P,J18,2*%
%TO.N,GNDA*%
X51746000Y-127460000D03*
X53270000Y-127460000D03*
X52762000Y-127460000D03*
X53778000Y-127460000D03*
X51238000Y-127460000D03*
X50730000Y-127460000D03*
X52254000Y-127460000D03*
X54286000Y-127460000D03*
X51746000Y-132540000D03*
X53270000Y-132540000D03*
X52762000Y-132540000D03*
X53778000Y-132540000D03*
X51238000Y-132540000D03*
X50730000Y-132540000D03*
X52254000Y-132540000D03*
X54286000Y-132540000D03*
X51746000Y-133175000D03*
X53270000Y-133175000D03*
X52762000Y-133175000D03*
X53778000Y-133175000D03*
X51238000Y-133175000D03*
X50730000Y-133175000D03*
X52254000Y-133175000D03*
X54286000Y-133175000D03*
X51238000Y-126825000D03*
X50730000Y-126825000D03*
X52254000Y-126825000D03*
X51746000Y-126825000D03*
X53270000Y-126825000D03*
X52762000Y-126825000D03*
X53778000Y-126825000D03*
X54286000Y-126825000D03*
D19*
X52508000Y-132825000D03*
X52508000Y-127175000D03*
%TD*%
D14*
%TO.P,J3,20*%
%TO.N,/A9*%
X101760000Y-75400000D03*
%TO.P,J3,19*%
%TO.N,/A8*%
X99220000Y-75400000D03*
%TO.P,J3,18*%
%TO.N,/A7*%
X96680000Y-75400000D03*
%TO.P,J3,17*%
%TO.N,/A6*%
X94140000Y-75400000D03*
%TO.P,J3,16*%
%TO.N,/A5*%
X91600000Y-75400000D03*
%TO.P,J3,15*%
%TO.N,/A4*%
X89060000Y-75400000D03*
%TO.P,J3,14*%
%TO.N,/A3*%
X86520000Y-75400000D03*
%TO.P,J3,13*%
%TO.N,/A2*%
X83980000Y-75400000D03*
%TO.P,J3,12*%
%TO.N,/A1*%
X81440000Y-75400000D03*
%TO.P,J3,11*%
%TO.N,/A0*%
X78900000Y-75400000D03*
%TO.P,J3,10*%
%TO.N,/B9*%
X76360000Y-75400000D03*
%TO.P,J3,9*%
%TO.N,/B8*%
X73820000Y-75400000D03*
%TO.P,J3,8*%
%TO.N,/B7*%
X71280000Y-75400000D03*
%TO.P,J3,7*%
%TO.N,/B6*%
X68740000Y-75400000D03*
%TO.P,J3,6*%
%TO.N,/B5*%
X66200000Y-75400000D03*
%TO.P,J3,5*%
%TO.N,/B4*%
X63660000Y-75400000D03*
%TO.P,J3,4*%
%TO.N,/B3*%
X61120000Y-75400000D03*
%TO.P,J3,3*%
%TO.N,/B2*%
X58580000Y-75400000D03*
%TO.P,J3,2*%
%TO.N,/B1*%
X56040000Y-75400000D03*
D15*
%TO.P,J3,1*%
%TO.N,/B0*%
X53500000Y-75400000D03*
%TD*%
D18*
%TO.P,J9,2*%
%TO.N,GNDA*%
X51746000Y-96580000D03*
X53270000Y-96580000D03*
X52762000Y-96580000D03*
X53778000Y-96580000D03*
X51238000Y-96580000D03*
X50730000Y-96580000D03*
X52254000Y-96580000D03*
X54286000Y-96580000D03*
X51746000Y-101660000D03*
X53270000Y-101660000D03*
X52762000Y-101660000D03*
X53778000Y-101660000D03*
X51238000Y-101660000D03*
X50730000Y-101660000D03*
X52254000Y-101660000D03*
X54286000Y-101660000D03*
X51746000Y-102295000D03*
X53270000Y-102295000D03*
X52762000Y-102295000D03*
X53778000Y-102295000D03*
X51238000Y-102295000D03*
X50730000Y-102295000D03*
X52254000Y-102295000D03*
X54286000Y-102295000D03*
X51238000Y-95945000D03*
X50730000Y-95945000D03*
X52254000Y-95945000D03*
X51746000Y-95945000D03*
X53270000Y-95945000D03*
X52762000Y-95945000D03*
X53778000Y-95945000D03*
X54286000Y-95945000D03*
D19*
X52508000Y-101945000D03*
X52508000Y-96295000D03*
%TD*%
D18*
%TO.P,J8,2*%
%TO.N,GNDA*%
X51746000Y-81580000D03*
X53270000Y-81580000D03*
X52762000Y-81580000D03*
X53778000Y-81580000D03*
X51238000Y-81580000D03*
X50730000Y-81580000D03*
X52254000Y-81580000D03*
X54286000Y-81580000D03*
X51746000Y-86660000D03*
X53270000Y-86660000D03*
X52762000Y-86660000D03*
X53778000Y-86660000D03*
X51238000Y-86660000D03*
X50730000Y-86660000D03*
X52254000Y-86660000D03*
X54286000Y-86660000D03*
X51746000Y-87295000D03*
X53270000Y-87295000D03*
X52762000Y-87295000D03*
X53778000Y-87295000D03*
X51238000Y-87295000D03*
X50730000Y-87295000D03*
X52254000Y-87295000D03*
X54286000Y-87295000D03*
X51238000Y-80945000D03*
X50730000Y-80945000D03*
X52254000Y-80945000D03*
X51746000Y-80945000D03*
X53270000Y-80945000D03*
X52762000Y-80945000D03*
X53778000Y-80945000D03*
X54286000Y-80945000D03*
D19*
X52508000Y-86945000D03*
X52508000Y-81295000D03*
%TD*%
D18*
%TO.P,J7,2*%
%TO.N,GNDA*%
X148512000Y-147540000D03*
X146988000Y-147540000D03*
X147496000Y-147540000D03*
X146480000Y-147540000D03*
X149020000Y-147540000D03*
X149528000Y-147540000D03*
X148004000Y-147540000D03*
X145972000Y-147540000D03*
X148512000Y-142460000D03*
X146988000Y-142460000D03*
X147496000Y-142460000D03*
X146480000Y-142460000D03*
X149020000Y-142460000D03*
X149528000Y-142460000D03*
X148004000Y-142460000D03*
X145972000Y-142460000D03*
X148512000Y-141825000D03*
X146988000Y-141825000D03*
X147496000Y-141825000D03*
X146480000Y-141825000D03*
X149020000Y-141825000D03*
X149528000Y-141825000D03*
X148004000Y-141825000D03*
X145972000Y-141825000D03*
X149020000Y-148175000D03*
X149528000Y-148175000D03*
X148004000Y-148175000D03*
X148512000Y-148175000D03*
X146988000Y-148175000D03*
X147496000Y-148175000D03*
X146480000Y-148175000D03*
X145972000Y-148175000D03*
D19*
X147750000Y-142175000D03*
X147750000Y-147825000D03*
%TD*%
D18*
%TO.P,J6,2*%
%TO.N,GNDA*%
X148512000Y-117540000D03*
X146988000Y-117540000D03*
X147496000Y-117540000D03*
X146480000Y-117540000D03*
X149020000Y-117540000D03*
X149528000Y-117540000D03*
X148004000Y-117540000D03*
X145972000Y-117540000D03*
X148512000Y-112460000D03*
X146988000Y-112460000D03*
X147496000Y-112460000D03*
X146480000Y-112460000D03*
X149020000Y-112460000D03*
X149528000Y-112460000D03*
X148004000Y-112460000D03*
X145972000Y-112460000D03*
X148512000Y-111825000D03*
X146988000Y-111825000D03*
X147496000Y-111825000D03*
X146480000Y-111825000D03*
X149020000Y-111825000D03*
X149528000Y-111825000D03*
X148004000Y-111825000D03*
X145972000Y-111825000D03*
X149020000Y-118175000D03*
X149528000Y-118175000D03*
X148004000Y-118175000D03*
X148512000Y-118175000D03*
X146988000Y-118175000D03*
X147496000Y-118175000D03*
X146480000Y-118175000D03*
X145972000Y-118175000D03*
D19*
X147750000Y-112175000D03*
X147750000Y-117825000D03*
%TD*%
D20*
%TO.P,L7,2*%
%TO.N,-5V*%
X146500000Y-65700000D03*
D13*
%TO.P,L7,1*%
%TO.N,/negative rail generator/-5VO*%
X146500000Y-53000000D03*
%TD*%
D21*
%TO.P,T3,2*%
%TO.N,/mixer/RF_Q*%
X128672000Y-132378000D03*
%TO.P,T3,1*%
%TO.N,GNDA*%
X124672000Y-132378000D03*
%TO.P,T3,3*%
%TO.N,Net-(D5-Pad3)*%
X128672000Y-137378000D03*
%TO.P,T3,4*%
%TO.N,/mixer/IF_Q*%
X126672000Y-137378000D03*
%TO.P,T3,5*%
%TO.N,Net-(D7-Pad3)*%
X124672000Y-137378000D03*
%TD*%
%TO.P,T4,2*%
%TO.N,GNDA*%
X124672000Y-127218000D03*
%TO.P,T4,1*%
%TO.N,/mixer/RF_I*%
X128672000Y-127218000D03*
%TO.P,T4,3*%
%TO.N,Net-(D8-Pad3)*%
X124672000Y-122218000D03*
%TO.P,T4,4*%
%TO.N,/mixer/IF_I*%
X126672000Y-122218000D03*
%TO.P,T4,5*%
%TO.N,Net-(D6-Pad3)*%
X128672000Y-122218000D03*
%TD*%
%TO.P,T2,2*%
%TO.N,GNDA*%
X115917000Y-115098000D03*
%TO.P,T2,1*%
%TO.N,/mixer/LO_I*%
X115917000Y-119098000D03*
%TO.P,T2,3*%
%TO.N,Net-(D6-Pad1)*%
X120917000Y-115098000D03*
%TO.P,T2,4*%
%TO.N,GNDA*%
X120917000Y-117098000D03*
%TO.P,T2,5*%
%TO.N,Net-(D6-Pad2)*%
X120917000Y-119098000D03*
%TD*%
%TO.P,T1,2*%
%TO.N,GNDA*%
X115917000Y-140498000D03*
%TO.P,T1,1*%
%TO.N,/mixer/LO_Q*%
X115917000Y-144498000D03*
%TO.P,T1,3*%
%TO.N,Net-(D5-Pad1)*%
X120917000Y-140498000D03*
%TO.P,T1,4*%
%TO.N,GNDA*%
X120917000Y-142498000D03*
%TO.P,T1,5*%
%TO.N,Net-(D5-Pad2)*%
X120917000Y-144498000D03*
%TD*%
D15*
%TO.P,J17,1*%
%TO.N,GNDA*%
X130500000Y-109000000D03*
%TD*%
%TO.P,J16,1*%
%TO.N,GNDA*%
X136000000Y-146000000D03*
%TD*%
%TO.P,J15,1*%
%TO.N,GNDA*%
X93000000Y-103500000D03*
%TD*%
%TO.P,J14,1*%
%TO.N,GNDA*%
X67272000Y-125641200D03*
%TD*%
%TO.P,J13,1*%
%TO.N,GNDA*%
X118500000Y-130000000D03*
%TD*%
%TO.P,J12,1*%
%TO.N,GNDA*%
X53500000Y-114000000D03*
%TD*%
%TO.P,J4,1*%
%TO.N,/~CW*%
X67907000Y-83528000D03*
%TD*%
D14*
%TO.P,J1,40*%
%TO.N,N/C*%
X53490000Y-55540000D03*
%TO.P,J1,39*%
%TO.N,GNDA*%
X53490000Y-53000000D03*
%TO.P,J1,38*%
%TO.N,N/C*%
X56030000Y-55540000D03*
%TO.P,J1,37*%
X56030000Y-53000000D03*
%TO.P,J1,36*%
X58570000Y-55540000D03*
%TO.P,J1,35*%
X58570000Y-53000000D03*
%TO.P,J1,34*%
X61110000Y-55540000D03*
%TO.P,J1,33*%
X61110000Y-53000000D03*
%TO.P,J1,32*%
%TO.N,GNDA*%
X63650000Y-55540000D03*
%TO.P,J1,31*%
X63650000Y-53000000D03*
%TO.P,J1,30*%
%TO.N,/I_CLK_P*%
X66190000Y-55540000D03*
%TO.P,J1,29*%
%TO.N,N/C*%
X66190000Y-53000000D03*
%TO.P,J1,28*%
X68730000Y-55540000D03*
%TO.P,J1,27*%
%TO.N,/I_CLK_N*%
X68730000Y-53000000D03*
%TO.P,J1,26*%
%TO.N,N/C*%
X71270000Y-55540000D03*
%TO.P,J1,25*%
X71270000Y-53000000D03*
%TO.P,J1,24*%
X73810000Y-55540000D03*
%TO.P,J1,23*%
X73810000Y-53000000D03*
%TO.P,J1,22*%
%TO.N,GNDA*%
X76350000Y-55540000D03*
%TO.P,J1,21*%
X76350000Y-53000000D03*
%TO.P,J1,20*%
%TO.N,N/C*%
X78890000Y-55540000D03*
%TO.P,J1,19*%
%TO.N,/LED3*%
X78890000Y-53000000D03*
%TO.P,J1,18*%
%TO.N,/Q_CLK_P*%
X81430000Y-55540000D03*
%TO.P,J1,17*%
%TO.N,/LED2*%
X81430000Y-53000000D03*
%TO.P,J1,16*%
%TO.N,/Q_CLK_N*%
X83970000Y-55540000D03*
%TO.P,J1,15*%
%TO.N,/LED1*%
X83970000Y-53000000D03*
%TO.P,J1,14*%
%TO.N,N/C*%
X86510000Y-55540000D03*
%TO.P,J1,13*%
%TO.N,/LED0*%
X86510000Y-53000000D03*
%TO.P,J1,12*%
%TO.N,GNDA*%
X89050000Y-55540000D03*
%TO.P,J1,11*%
X89050000Y-53000000D03*
%TO.P,J1,10*%
%TO.N,/DAC_CLK_P*%
X91590000Y-55540000D03*
%TO.P,J1,9*%
%TO.N,/DAC_CLK_N*%
X91590000Y-53000000D03*
%TO.P,J1,8*%
%TO.N,N/C*%
X94130000Y-55540000D03*
%TO.P,J1,7*%
X94130000Y-53000000D03*
%TO.P,J1,6*%
%TO.N,Net-(J1-Pad6)*%
X96670000Y-55540000D03*
%TO.P,J1,5*%
%TO.N,Net-(J1-Pad5)*%
X96670000Y-53000000D03*
%TO.P,J1,4*%
%TO.N,N/C*%
X99210000Y-55540000D03*
%TO.P,J1,3*%
X99210000Y-53000000D03*
%TO.P,J1,2*%
%TO.N,/VCCIO0*%
X101750000Y-55540000D03*
D15*
%TO.P,J1,1*%
X101750000Y-53000000D03*
%TD*%
D22*
%TO.N,GNDA*%
X107500000Y-56000000D03*
X108250000Y-80250000D03*
X108000000Y-68750000D03*
X126000000Y-109000000D03*
X123500000Y-109000000D03*
X121000000Y-109000000D03*
X118500000Y-109000000D03*
D23*
X85315000Y-128100000D03*
X81315000Y-128100000D03*
X83315000Y-128100000D03*
X89315000Y-128100000D03*
X79315000Y-128100000D03*
X87315000Y-128100000D03*
X77315000Y-128100000D03*
X92015000Y-130700000D03*
X94015000Y-130700000D03*
X96015000Y-130700000D03*
X98015000Y-130700000D03*
X100015000Y-130700000D03*
X102015000Y-130700000D03*
X104015000Y-130700000D03*
X106015000Y-130700000D03*
X81915000Y-102400000D03*
X81415000Y-102400000D03*
X82415000Y-101200000D03*
X82415000Y-101700000D03*
X81265000Y-101000000D03*
X70015000Y-101100000D03*
X70515000Y-102400000D03*
X70015000Y-101600000D03*
X71015000Y-102400000D03*
X70015000Y-102100000D03*
X75315000Y-100800000D03*
X75815000Y-100800000D03*
X76315000Y-100800000D03*
X76815000Y-100800000D03*
X77315000Y-100800000D03*
X75315000Y-102500000D03*
X76815000Y-102500000D03*
X75815000Y-102500000D03*
X77315000Y-102500000D03*
X76315000Y-102500000D03*
X77865000Y-92221600D03*
X77815000Y-97100000D03*
D22*
X118417000Y-118650000D03*
X118417000Y-115650000D03*
X118417000Y-117098000D03*
X128224000Y-124718000D03*
X125224000Y-124718000D03*
X126672000Y-124718000D03*
X128224000Y-134878000D03*
X125224000Y-134878000D03*
X126672000Y-134878000D03*
X118417000Y-141050000D03*
X118417000Y-142498000D03*
X118417000Y-144050000D03*
X108500000Y-130450000D03*
X55700000Y-146250000D03*
X55700000Y-143650000D03*
X55700000Y-128650000D03*
X55700000Y-131250000D03*
X108500000Y-114450000D03*
X107700000Y-127050000D03*
X109500000Y-125050000D03*
X139515000Y-64000000D03*
X142515000Y-70000000D03*
X140515000Y-59500000D03*
X127515000Y-58500000D03*
X133015000Y-82700000D03*
X137315000Y-103500000D03*
X125500000Y-102500000D03*
X128000000Y-100500000D03*
X130000000Y-98500000D03*
X132000000Y-96500000D03*
X130000000Y-102500000D03*
X132000000Y-100000000D03*
X121000000Y-130000000D03*
X126000000Y-130000000D03*
X133500000Y-130000000D03*
X123500000Y-130000000D03*
X128500000Y-130000000D03*
X116000000Y-130000000D03*
X131000000Y-130000000D03*
X72000000Y-97500000D03*
X75000000Y-97500000D03*
X85500000Y-92000000D03*
X89000000Y-92000000D03*
X98500000Y-85000000D03*
X100500000Y-83000000D03*
X102500000Y-81000000D03*
X63500000Y-101500000D03*
X66000000Y-101500000D03*
X63500000Y-99000000D03*
X66000000Y-99000000D03*
X63500000Y-96500000D03*
X66000000Y-96500000D03*
X133500000Y-51000000D03*
X123500000Y-51000000D03*
X138500000Y-51000000D03*
X136000000Y-51000000D03*
X116000000Y-51000000D03*
X141000000Y-51000000D03*
X126000000Y-51000000D03*
X108500000Y-51000000D03*
X128500000Y-51000000D03*
X121000000Y-51000000D03*
X111000000Y-51000000D03*
X143500000Y-51000000D03*
X118500000Y-51000000D03*
X131000000Y-51000000D03*
X146000000Y-51000000D03*
X113500000Y-51000000D03*
X73000000Y-58500000D03*
X68000000Y-58500000D03*
X55500000Y-58500000D03*
X58000000Y-58500000D03*
X80500000Y-58500000D03*
X78000000Y-58500000D03*
X65500000Y-58500000D03*
X63000000Y-58500000D03*
X60500000Y-58500000D03*
X75500000Y-58500000D03*
X70500000Y-58500000D03*
X53500000Y-67500000D03*
X55500000Y-67500000D03*
X57000000Y-67500000D03*
X59000000Y-67500000D03*
X60500000Y-67500000D03*
X62500000Y-67500000D03*
X67500000Y-67500000D03*
X70000000Y-67500000D03*
X73000000Y-67500000D03*
X76000000Y-67500000D03*
X78500000Y-67500000D03*
X82000000Y-67500000D03*
X85000000Y-67500000D03*
X88500000Y-67500000D03*
X91000000Y-67500000D03*
X94000000Y-67500000D03*
X96500000Y-67500000D03*
X101000000Y-67500000D03*
X53500000Y-109000000D03*
X53500000Y-124000000D03*
X53500000Y-116500000D03*
X53500000Y-119000000D03*
X53500000Y-106500000D03*
X53500000Y-111500000D03*
X53500000Y-121500000D03*
X53500000Y-104000000D03*
X56000000Y-109000000D03*
X56000000Y-124000000D03*
X56000000Y-116500000D03*
X56000000Y-119000000D03*
X56000000Y-106500000D03*
X56000000Y-111500000D03*
X56000000Y-114000000D03*
X56000000Y-121500000D03*
X56000000Y-104000000D03*
X58500000Y-116500000D03*
X58500000Y-119000000D03*
X58500000Y-114000000D03*
X58500000Y-104000000D03*
X61000000Y-116500000D03*
X61000000Y-114000000D03*
X61000000Y-104000000D03*
X63500000Y-114000000D03*
X63500000Y-104000000D03*
X66000000Y-109000000D03*
X66000000Y-124000000D03*
X66000000Y-106500000D03*
X66000000Y-111500000D03*
X66000000Y-121500000D03*
X66000000Y-104000000D03*
X68500000Y-109000000D03*
X68500000Y-124000000D03*
X68500000Y-116500000D03*
X68500000Y-119000000D03*
X68500000Y-106500000D03*
X68500000Y-121500000D03*
X68500000Y-104000000D03*
X71000000Y-124000000D03*
X71000000Y-116500000D03*
X71000000Y-119000000D03*
X71000000Y-106500000D03*
X71000000Y-114000000D03*
X71000000Y-121500000D03*
X71000000Y-104000000D03*
X73500000Y-124000000D03*
X73500000Y-111500000D03*
X73500000Y-114000000D03*
X76000000Y-104000000D03*
X53500000Y-139000000D03*
X53500000Y-136500000D03*
X56000000Y-139000000D03*
X53500000Y-134000000D03*
X56000000Y-136500000D03*
X56000000Y-141500000D03*
X56000000Y-134000000D03*
X60000000Y-140750000D03*
X146000000Y-136500000D03*
X141000000Y-136500000D03*
X143500000Y-136500000D03*
X136000000Y-136500000D03*
X133500000Y-136500000D03*
X138500000Y-136500000D03*
X146000000Y-121500000D03*
X141000000Y-121500000D03*
X143500000Y-121500000D03*
X136000000Y-121500000D03*
X133500000Y-121500000D03*
X138500000Y-121500000D03*
X108500000Y-123250000D03*
X77000000Y-115500000D03*
X79500000Y-113000000D03*
X92000000Y-100500000D03*
X82000000Y-110500000D03*
X87000000Y-105500000D03*
X89500000Y-103000000D03*
X84500000Y-108000000D03*
X94500000Y-98000000D03*
X97000000Y-95500000D03*
X53500000Y-89000000D03*
X53500000Y-94000000D03*
X53500000Y-91500000D03*
X56000000Y-89000000D03*
X56000000Y-94000000D03*
X56000000Y-91500000D03*
X58500000Y-89000000D03*
X58500000Y-94000000D03*
X58500000Y-91500000D03*
X108500000Y-120750000D03*
X108500000Y-118250000D03*
X108500000Y-139000000D03*
X108500000Y-146500000D03*
X108500000Y-136500000D03*
X108500000Y-144000000D03*
X100500000Y-58500000D03*
X103000000Y-58500000D03*
X95500000Y-58500000D03*
X105750000Y-68000000D03*
X105750000Y-75500000D03*
X105750000Y-78000000D03*
X105750000Y-65500000D03*
X105750000Y-70500000D03*
X105750000Y-73000000D03*
X105750000Y-80500000D03*
X105750000Y-63000000D03*
X105750000Y-60500000D03*
X53000000Y-58500000D03*
X90500000Y-58500000D03*
X88000000Y-58500000D03*
X85500000Y-58500000D03*
X83000000Y-58500000D03*
X93000000Y-58500000D03*
X89500000Y-98000000D03*
X77000000Y-110500000D03*
X79500000Y-108000000D03*
X84500000Y-103000000D03*
X82000000Y-105500000D03*
X87000000Y-100500000D03*
X102000000Y-85500000D03*
X94500000Y-93000000D03*
X92000000Y-95500000D03*
X97000000Y-90500000D03*
X104500000Y-83000000D03*
X73000000Y-108500000D03*
X65500000Y-116000000D03*
X63000000Y-118500000D03*
X70500000Y-111000000D03*
X68000000Y-113500000D03*
X75500000Y-106000000D03*
X60000000Y-130750000D03*
X60000000Y-133250000D03*
X60000000Y-125750000D03*
X60000000Y-123250000D03*
X60000000Y-128250000D03*
X60000000Y-138250000D03*
X60000000Y-135750000D03*
X68500000Y-140750000D03*
X71000000Y-140750000D03*
X66000000Y-140750000D03*
X63500000Y-140750000D03*
X78500000Y-140750000D03*
X81000000Y-140750000D03*
X83500000Y-140750000D03*
X76000000Y-140750000D03*
X91000000Y-140750000D03*
X88500000Y-140750000D03*
X86000000Y-140750000D03*
X73500000Y-140750000D03*
X128074000Y-83763000D03*
X133015000Y-83600000D03*
X133915000Y-83600000D03*
X129149000Y-84238000D03*
X92550000Y-119800000D03*
X92550000Y-121300000D03*
X92550000Y-122800000D03*
X96350000Y-125500000D03*
X96550000Y-116800000D03*
X105350000Y-118200000D03*
X105350000Y-119700000D03*
X105350000Y-121200000D03*
X105350000Y-122700000D03*
X105350000Y-124300000D03*
X92550000Y-118300002D03*
X92550000Y-123900004D03*
X92550000Y-125000036D03*
X92550000Y-117100040D03*
X106250000Y-128750000D03*
X106250000Y-113450000D03*
X131500000Y-135300000D03*
X131500000Y-124400000D03*
X139400000Y-132800000D03*
X144100000Y-132800000D03*
X96033000Y-145485000D03*
X104789000Y-144003000D03*
X95933000Y-136385000D03*
X92033000Y-136385000D03*
X92027000Y-139455000D03*
X92027000Y-140979000D03*
X92027000Y-142503000D03*
X92027000Y-143773000D03*
X104789000Y-142479000D03*
X104789000Y-140955000D03*
X104789000Y-139431000D03*
X104789000Y-137907000D03*
X92027000Y-137931000D03*
X92033000Y-144808000D03*
X139515000Y-97250000D03*
X139515000Y-99500000D03*
X135515000Y-103500000D03*
X114964000Y-99086000D03*
X115964000Y-99086000D03*
X111492000Y-98808000D03*
X111492000Y-97808000D03*
X111492000Y-96808000D03*
X121915000Y-96200000D03*
X120115000Y-94800000D03*
X120115000Y-93800000D03*
X124115000Y-94800000D03*
X124115000Y-93800000D03*
X136415000Y-103500000D03*
D23*
X79210000Y-94196000D03*
X82740600Y-91732200D03*
X83299400Y-91732200D03*
X82054800Y-97193200D03*
X84036000Y-97193200D03*
X79819600Y-94196000D03*
X75958800Y-95821600D03*
X75958800Y-95364400D03*
X74587200Y-95415200D03*
X75146000Y-95415200D03*
D22*
X133380000Y-56655000D03*
X131515000Y-58500000D03*
X136015000Y-69500000D03*
X136015000Y-71000000D03*
X136015000Y-72500000D03*
X136515000Y-58000000D03*
X140515000Y-58000000D03*
X113060000Y-67450000D03*
X132110000Y-64275000D03*
X127515000Y-59500000D03*
X140515000Y-74000000D03*
X142515000Y-74000000D03*
X136015000Y-74000000D03*
X131515000Y-59500000D03*
X140515000Y-70000000D03*
X136515000Y-59500000D03*
X109300000Y-85300000D03*
D23*
X112738000Y-104559200D03*
X98260000Y-94399200D03*
X73114000Y-86906200D03*
X73368000Y-87322760D03*
X73911560Y-87223000D03*
X71903690Y-91088310D03*
X73114000Y-91026080D03*
X73103840Y-90457120D03*
X73423880Y-89949120D03*
X68323560Y-90259000D03*
X67272000Y-91770000D03*
X67780000Y-91770000D03*
D22*
X55900000Y-101700000D03*
X60700000Y-101700000D03*
X55900000Y-86700000D03*
X60700000Y-86700000D03*
D23*
X72392640Y-90573960D03*
X75273000Y-78955984D03*
X75273000Y-79413200D03*
X75273000Y-79921200D03*
X75273000Y-80429200D03*
X75273000Y-80937200D03*
X75273000Y-81445200D03*
X75273000Y-81953200D03*
X75501600Y-82359600D03*
X67653018Y-90259000D03*
X66293800Y-91770000D03*
X66764000Y-91770000D03*
D22*
X51000000Y-149000000D03*
X53500000Y-149000000D03*
X56000000Y-149000000D03*
X58500000Y-149000000D03*
X61000000Y-149000000D03*
X63500000Y-149000000D03*
X66000000Y-149000000D03*
X68500000Y-149000000D03*
X71000000Y-149000000D03*
X73500000Y-149000000D03*
X76000000Y-149000000D03*
X78500000Y-149000000D03*
X81000000Y-149000000D03*
X83500000Y-149000000D03*
X86000000Y-149000000D03*
X88500000Y-149000000D03*
X91000000Y-149000000D03*
X93500000Y-149000000D03*
X96000000Y-149000000D03*
X98500000Y-149000000D03*
X101000000Y-149000000D03*
X103500000Y-149000000D03*
X106000000Y-149000000D03*
X108500000Y-149000000D03*
X111000000Y-149000000D03*
X113500000Y-149000000D03*
X116000000Y-149000000D03*
X118500000Y-149000000D03*
X121000000Y-149000000D03*
X123500000Y-149000000D03*
X126000000Y-149000000D03*
X128500000Y-149000000D03*
X131000000Y-149000000D03*
X133500000Y-149000000D03*
X136000000Y-149000000D03*
X138500000Y-149000000D03*
X141000000Y-149000000D03*
X143500000Y-149000000D03*
X146000000Y-149000000D03*
X148500000Y-149000000D03*
X51000000Y-139000000D03*
X51000000Y-136500000D03*
X51000000Y-124000000D03*
X51000000Y-121500000D03*
X51000000Y-119000000D03*
X51000000Y-116500000D03*
X51000000Y-114000000D03*
X51000000Y-111500000D03*
X51000000Y-109000000D03*
X51000000Y-106500000D03*
X51000000Y-104000000D03*
X51000000Y-94000000D03*
X51000000Y-91500000D03*
X51000000Y-89000000D03*
X51000000Y-79000000D03*
X51000000Y-51500000D03*
X51000000Y-134000000D03*
X148500000Y-139000000D03*
X148500000Y-136500000D03*
X148500000Y-134000000D03*
X148500000Y-124000000D03*
X148500000Y-121500000D03*
X148500000Y-119000000D03*
X148500000Y-109000000D03*
X148500000Y-106500000D03*
X148500000Y-104000000D03*
X148500000Y-101500000D03*
X148500000Y-99000000D03*
X148500000Y-94000000D03*
X148500000Y-91500000D03*
X148500000Y-89000000D03*
X148500000Y-86500000D03*
X148500000Y-84000000D03*
X148500000Y-81500000D03*
X148500000Y-69000000D03*
X148500000Y-66500000D03*
X148500000Y-64000000D03*
X148500000Y-61500000D03*
X148500000Y-59000000D03*
X148500000Y-56500000D03*
X148500000Y-54000000D03*
X148500000Y-51500000D03*
X98000000Y-58500000D03*
X123000000Y-77000000D03*
X125000000Y-77000000D03*
X125000000Y-79000000D03*
X125500000Y-68500000D03*
X125500000Y-66500000D03*
X125500000Y-64500000D03*
X143000000Y-64000000D03*
X143000000Y-61500000D03*
X126500000Y-56000000D03*
X129500000Y-56000000D03*
X132000000Y-56000000D03*
X146000000Y-109000000D03*
X143500000Y-109000000D03*
X141000000Y-109000000D03*
X138500000Y-109000000D03*
X136000000Y-109000000D03*
X133500000Y-109000000D03*
X77215000Y-121300000D03*
X79755000Y-121300000D03*
X82295000Y-121300000D03*
X84835000Y-121300000D03*
X87375000Y-121300000D03*
X61015000Y-120500000D03*
X135515000Y-84500000D03*
X112015000Y-92750000D03*
X111015000Y-92750000D03*
%TO.N,+5V*%
X112715000Y-77550000D03*
X111965000Y-78100000D03*
X111965000Y-77050000D03*
X125050000Y-84250000D03*
X125050000Y-83250000D03*
X125050000Y-82250000D03*
X125050000Y-81250000D03*
D23*
%TO.N,+3V3*%
X82816800Y-99784000D03*
X81597600Y-99784000D03*
X82207200Y-100393600D03*
X82207200Y-99225200D03*
X68491200Y-98615600D03*
X82207200Y-99784000D03*
X69202400Y-98615600D03*
X69202400Y-99326800D03*
X69862800Y-98615600D03*
D22*
%TO.N,-2V5*%
X90300000Y-127500000D03*
X90300000Y-128500000D03*
X90300000Y-114500000D03*
X90300000Y-113500000D03*
%TO.N,/mixer/+OPAMP_2.5V*%
X104650000Y-113150000D03*
X104650000Y-112100000D03*
X101315000Y-121800000D03*
X101315000Y-120800000D03*
X103613000Y-113150000D03*
X103613010Y-112100000D03*
%TO.N,/mixer/-OPAMP_2.5V*%
X96315000Y-120800000D03*
X96315000Y-121800000D03*
X95654000Y-111850000D03*
X94500000Y-111850000D03*
X95654000Y-112900000D03*
X94500000Y-112900000D03*
%TO.N,/IQ DAC and AA filter/+OPAMP_2.5V*%
X103733992Y-132449986D03*
X100915000Y-140400000D03*
X100915000Y-141400000D03*
X102607004Y-132449986D03*
X103733992Y-131397960D03*
X102607002Y-131397960D03*
%TO.N,/IQ DAC and AA filter/-OPAMP_2.5V*%
X96115000Y-140400000D03*
X96115000Y-141400000D03*
X94300000Y-131500000D03*
X95407948Y-131500000D03*
X95407948Y-132499948D03*
X94300000Y-132500000D03*
D23*
%TO.N,/IQ DAC and AA filter/CVDD*%
X74638000Y-91732200D03*
X74638000Y-91221660D03*
X74632920Y-90706040D03*
X73604220Y-88790880D03*
X73141940Y-88879780D03*
%TO.N,/IQ DAC and AA filter/DVDD*%
X97917100Y-81549340D03*
X97434500Y-82016700D03*
X96977300Y-82509460D03*
X96482000Y-82969200D03*
X76289000Y-78778200D03*
X76797000Y-78778200D03*
X77305000Y-78778200D03*
X77813000Y-78778200D03*
D22*
%TO.N,Net-(D5-Pad3)*%
X131117000Y-142498000D03*
%TO.N,Net-(D6-Pad3)*%
X131117000Y-117098000D03*
%TO.N,Net-(D7-Pad3)*%
X122227000Y-142498000D03*
%TO.N,Net-(D8-Pad3)*%
X122227000Y-117098000D03*
D23*
%TO.N,/LED3*%
X117208400Y-79514800D03*
%TO.N,/LED2*%
X114770000Y-79870400D03*
%TO.N,/LED1*%
X112128400Y-79819600D03*
%TO.N,/LED0*%
X108765000Y-79250000D03*
%TO.N,/VCCIO0*%
X108674000Y-83985200D03*
%TO.N,/CLK_EXT_IN*%
X60160000Y-82715200D03*
%TO.N,/CLK_OUT*%
X60668000Y-97701200D03*
%TO.N,/~CW*%
X101816000Y-73063200D03*
D24*
%TO.N,/Q_CLK_N*%
X75307070Y-121846462D03*
%TO.N,/Q_CLK_P*%
X75307070Y-122398862D03*
%TO.N,/I_CLK_P*%
X74869800Y-111468000D03*
%TO.N,/I_CLK_N*%
X75422200Y-111468000D03*
%TO.N,Net-(JP4-Pad1)*%
X108550000Y-116250000D03*
D22*
%TO.N,Net-(R84-Pad2)*%
X114330000Y-68720000D03*
X123220000Y-68720000D03*
D24*
%TO.N,/IQ DAC and AA filter/A_IOUT_P*%
X79546141Y-97060981D03*
D23*
X78835200Y-91808400D03*
%TO.N,/IQ DAC and AA filter/A_IOUT_N*%
X78282800Y-91808400D03*
D24*
X80098541Y-97060981D03*
D23*
%TO.N,/IQ DAC and AA filter/B_IOUT_P*%
X77335200Y-91808400D03*
D24*
X77335200Y-97752000D03*
%TO.N,/IQ DAC and AA filter/B_IOUT_N*%
X76782800Y-97752000D03*
D23*
X76782800Y-91808400D03*
D22*
%TO.N,/negative rail generator/-5VO*%
X114370002Y-67250000D03*
X113265000Y-59750000D03*
D24*
%TO.N,/mixer/LO_I_EXT*%
X55700000Y-130000000D03*
X108550000Y-129000000D03*
X111449994Y-126100000D03*
%TO.N,/mixer/LO_Q_EXT*%
X55600000Y-145000000D03*
%TO.N,Net-(JP5-Pad1)*%
X108550000Y-126000000D03*
D23*
%TO.N,Net-(J1-Pad6)*%
X111214000Y-104559200D03*
X107912000Y-86271200D03*
%TO.N,Net-(J1-Pad5)*%
X105626000Y-90081200D03*
X105626000Y-86271200D03*
%TD*%
D25*
%TO.N,+5V*%
X131587998Y-89497000D02*
X119649998Y-77559000D01*
X139758000Y-89497000D02*
X131587998Y-89497000D01*
X119649998Y-77559000D02*
X111976000Y-77559000D01*
X125050000Y-81250000D02*
X125050000Y-84250000D01*
%TO.N,+3V3*%
X69202400Y-99326800D02*
X69202400Y-99326800D01*
X69202400Y-99326800D02*
X69202400Y-98971200D01*
X69202400Y-98971200D02*
X69202400Y-98615600D01*
X69425600Y-99550000D02*
X69202400Y-99326800D01*
X82207200Y-99784000D02*
X81973200Y-99550000D01*
D26*
X69475600Y-99500000D02*
X69425600Y-99550000D01*
X81923200Y-99500000D02*
X69475600Y-99500000D01*
X81973200Y-99550000D02*
X81923200Y-99500000D01*
D27*
%TO.N,-2V5*%
X90300000Y-128500000D02*
X90300000Y-113500000D01*
D28*
%TO.N,/IQ DAC and AA filter/CVDD*%
X74638000Y-90589200D02*
X74638000Y-90970200D01*
X74638000Y-91732200D02*
X74638000Y-91732200D01*
X74638000Y-91351200D02*
X74638000Y-91732200D01*
X74638000Y-90970200D02*
X74638000Y-91351200D01*
X74638000Y-90589200D02*
X74638000Y-90589200D01*
X74638000Y-90589200D02*
X74638000Y-90375840D01*
X74638000Y-90375840D02*
X73141940Y-88879780D01*
D29*
X73515320Y-88879780D02*
X73604220Y-88790880D01*
X73141940Y-88879780D02*
X73515320Y-88879780D01*
D25*
%TO.N,/IQ DAC and AA filter/DVDD*%
X97752000Y-81699200D02*
X96609000Y-82842200D01*
X96609000Y-82842200D02*
X92418000Y-78651200D01*
X92418000Y-78651200D02*
X77051000Y-78651200D01*
D30*
%TO.N,Net-(D5-Pad3)*%
X128672000Y-140053000D02*
X131117000Y-142498000D01*
X128672000Y-137378000D02*
X128672000Y-140053000D01*
%TO.N,Net-(D6-Pad3)*%
X128672000Y-119543000D02*
X131117000Y-117098000D01*
X128672000Y-122218000D02*
X128672000Y-119543000D01*
%TO.N,Net-(D7-Pad3)*%
X124672000Y-140053000D02*
X122227000Y-142498000D01*
X124672000Y-137378000D02*
X124672000Y-140053000D01*
%TO.N,Net-(D8-Pad3)*%
X124672000Y-119543000D02*
X122227000Y-117098000D01*
X124672000Y-122218000D02*
X124672000Y-119543000D01*
D29*
%TO.N,/LED3*%
X110265000Y-78250000D02*
X111021800Y-79006800D01*
X81004866Y-50885134D02*
X107150134Y-50885134D01*
X111021800Y-79006800D02*
X116700400Y-79006800D01*
X78890000Y-53000000D02*
X81004866Y-50885134D01*
X107150134Y-50885134D02*
X110265000Y-54000000D01*
X110265000Y-54000000D02*
X110265000Y-78250000D01*
X116700400Y-79006800D02*
X117208400Y-79514800D01*
%TO.N,/LED2*%
X109765000Y-54250000D02*
X106646956Y-51131956D01*
X83298044Y-51131956D02*
X81430000Y-53000000D01*
X114345793Y-79446193D02*
X110711193Y-79446193D01*
X114770000Y-79870400D02*
X114345793Y-79446193D01*
X110711193Y-79446193D02*
X109765000Y-78500000D01*
X109765000Y-78500000D02*
X109765000Y-54250000D01*
X106646956Y-51131956D02*
X83298044Y-51131956D01*
%TO.N,/LED1*%
X85591222Y-51378778D02*
X83970000Y-53000000D01*
X109265000Y-54750000D02*
X105893778Y-51378778D01*
X105893778Y-51378778D02*
X85591222Y-51378778D01*
X109265000Y-79000000D02*
X109265000Y-54750000D01*
X110084600Y-79819600D02*
X109265000Y-79000000D01*
X112128400Y-79819600D02*
X110084600Y-79819600D01*
%TO.N,/LED0*%
X108765000Y-55120200D02*
X108765000Y-79250000D01*
X105270400Y-51625600D02*
X108765000Y-55120200D01*
X87884400Y-51625600D02*
X105270400Y-51625600D01*
X86510000Y-53000000D02*
X87884400Y-51625600D01*
%TO.N,/VCCIO0*%
X105808000Y-93963200D02*
X105808000Y-104631200D01*
X108674000Y-104631200D02*
X105808000Y-104631200D01*
X102174000Y-93963200D02*
X105808000Y-93963200D01*
X105808000Y-104631200D02*
X102174000Y-104631200D01*
X107586000Y-93963200D02*
X108674000Y-93963200D01*
X105808000Y-93963200D02*
X107586000Y-93963200D01*
X106642000Y-86525200D02*
X106642000Y-93019200D01*
X106642000Y-93019200D02*
X107586000Y-93963200D01*
X108674000Y-84493200D02*
X106642000Y-86525200D01*
X108674000Y-83985200D02*
X108674000Y-84493200D01*
D30*
%TO.N,/CLK_EXT_IN*%
X70002800Y-63157200D02*
X67994971Y-63157200D01*
X71270000Y-61890000D02*
X70002800Y-63157200D01*
X67994971Y-63157200D02*
X67526000Y-63626171D01*
X67526000Y-63626171D02*
X67526000Y-64935200D01*
X67526000Y-64935200D02*
X64986000Y-67475200D01*
X64986000Y-67475200D02*
X64986000Y-77889200D01*
X64986000Y-77889200D02*
X60160000Y-82715200D01*
%TO.N,/CLK_OUT*%
X61346686Y-88386514D02*
X65748000Y-83985200D01*
X61346686Y-97022514D02*
X61346686Y-88386514D01*
X60668000Y-97701200D02*
X61346686Y-97022514D01*
X65748000Y-81119000D02*
X70066000Y-76801000D01*
X65748000Y-83985200D02*
X65748000Y-81119000D01*
X75836900Y-66178100D02*
X76443100Y-66178100D01*
X70066000Y-71949000D02*
X75836900Y-66178100D01*
X70066000Y-76801000D02*
X70066000Y-71949000D01*
X76443100Y-66178100D02*
X77686000Y-64935200D01*
X77686000Y-63094000D02*
X78890000Y-61890000D01*
X77686000Y-64935200D02*
X77686000Y-63094000D01*
D29*
%TO.N,/~CW*%
X75146000Y-74587200D02*
X76670000Y-73063200D01*
X75146000Y-75857200D02*
X75146000Y-74587200D01*
X68415000Y-82588200D02*
X75146000Y-75857200D01*
X76670000Y-73063200D02*
X101816000Y-73063200D01*
X68415000Y-83020000D02*
X67907000Y-83528000D01*
X68415000Y-82588200D02*
X68415000Y-83020000D01*
D31*
%TO.N,/Q_CLK_N*%
X83970000Y-55540000D02*
X82904216Y-56605784D01*
X82904216Y-56605784D02*
X82904216Y-57100410D01*
X82904216Y-57100410D02*
X83099590Y-57295784D01*
X83099590Y-57295784D02*
X105849590Y-57295784D01*
X105849590Y-57295784D02*
X107219216Y-58665410D01*
X107219216Y-58665410D02*
X107219216Y-82834590D01*
X107219216Y-82834590D02*
X73969216Y-116084590D01*
X73969216Y-116084590D02*
X73969216Y-121415410D01*
X75235086Y-121918446D02*
X75307070Y-121846462D01*
X74472252Y-121918446D02*
X75235086Y-121918446D01*
X73969216Y-121415410D02*
X74472252Y-121918446D01*
%TO.N,/Q_CLK_P*%
X73560784Y-121584590D02*
X74303072Y-122326878D01*
X74303072Y-122326878D02*
X75235086Y-122326878D01*
X75235086Y-122326878D02*
X75307070Y-122398862D01*
X106810784Y-58834590D02*
X106810784Y-82665410D01*
X106810784Y-82665410D02*
X73560784Y-115915410D01*
X105680410Y-57704216D02*
X106810784Y-58834590D01*
X73560784Y-115915410D02*
X73560784Y-121584590D01*
X82930410Y-57704216D02*
X105680410Y-57704216D01*
X81430000Y-55540000D02*
X82495784Y-56605784D01*
X82495784Y-57269590D02*
X82930410Y-57704216D01*
X82495784Y-56605784D02*
X82495784Y-57269590D01*
D30*
%TO.N,/I_CLK_P*%
X66190000Y-55540000D02*
X66190000Y-55325000D01*
D31*
X74941784Y-111396016D02*
X74869800Y-111468000D01*
X74941784Y-110534410D02*
X74941784Y-111396016D01*
X103680410Y-59704216D02*
X104310784Y-60334590D01*
X69680410Y-59704216D02*
X103680410Y-59704216D01*
X68810784Y-58834590D02*
X69680410Y-59704216D01*
X68810784Y-58084590D02*
X68810784Y-58834590D01*
X67265000Y-56538806D02*
X68810784Y-58084590D01*
X67265000Y-55000000D02*
X67265000Y-56538806D01*
X104310784Y-81165410D02*
X74941784Y-110534410D01*
X67015000Y-54750000D02*
X67265000Y-55000000D01*
X104310784Y-60334590D02*
X104310784Y-81165410D01*
X66225000Y-55540000D02*
X67015000Y-54750000D01*
X66190000Y-55540000D02*
X66225000Y-55540000D01*
D32*
%TO.N,/I_CLK_N*%
X68730000Y-53000000D02*
X68730000Y-53285000D01*
D31*
X67570243Y-56266437D02*
X67570243Y-54250000D01*
X69219216Y-57915410D02*
X67570243Y-56266437D01*
X69219216Y-58665410D02*
X69219216Y-57915410D01*
X103849590Y-59295784D02*
X69849590Y-59295784D01*
X69849590Y-59295784D02*
X69219216Y-58665410D01*
X104719216Y-60165410D02*
X103849590Y-59295784D01*
X104719216Y-81334590D02*
X104719216Y-60165410D01*
X75422200Y-110631606D02*
X104719216Y-81334590D01*
X75422200Y-111468000D02*
X75422200Y-110631606D01*
X67570243Y-54159757D02*
X68730000Y-53000000D01*
X67570243Y-54250000D02*
X67570243Y-54159757D01*
D30*
%TO.N,Net-(JP4-Pad1)*%
X112120000Y-118500000D02*
X112120000Y-118005000D01*
X110365000Y-116250000D02*
X108550000Y-116250000D01*
X112120000Y-118005000D02*
X110365000Y-116250000D01*
D32*
%TO.N,Net-(R84-Pad2)*%
X114330000Y-68720000D02*
X123220000Y-68720000D01*
D31*
%TO.N,/IQ DAC and AA filter/A_IOUT_P*%
X78763216Y-91880384D02*
X78763216Y-97159410D01*
X78835200Y-91808400D02*
X78763216Y-91880384D01*
X78763216Y-97159410D02*
X79199590Y-97595784D01*
X79199590Y-97595784D02*
X79514355Y-97595784D01*
X79618125Y-97132965D02*
X79546141Y-97060981D01*
X79618125Y-97492014D02*
X79618125Y-97132965D01*
X79514355Y-97595784D02*
X79618125Y-97492014D01*
%TO.N,/IQ DAC and AA filter/A_IOUT_N*%
X80026557Y-97132965D02*
X80098541Y-97060981D01*
X79683535Y-98004216D02*
X80026557Y-97661194D01*
X80026557Y-97661194D02*
X80026557Y-97132965D01*
X78354784Y-97328590D02*
X79030410Y-98004216D01*
X78282800Y-91808400D02*
X78354784Y-91880384D01*
X78354784Y-91880384D02*
X78354784Y-97328590D01*
X79030410Y-98004216D02*
X79683535Y-98004216D01*
%TO.N,/IQ DAC and AA filter/B_IOUT_P*%
X77263216Y-97680016D02*
X77335200Y-97752000D01*
X77335200Y-91808400D02*
X77263216Y-91880384D01*
X77263216Y-91880384D02*
X77263216Y-97680016D01*
%TO.N,/IQ DAC and AA filter/B_IOUT_N*%
X76782800Y-91808400D02*
X76854784Y-91880384D01*
X76854784Y-91880384D02*
X76854784Y-97680016D01*
X76854784Y-97680016D02*
X76782800Y-97752000D01*
D32*
%TO.N,/negative rail generator/-5VO*%
X114370002Y-67250000D02*
X114370002Y-60855002D01*
X114370002Y-60855002D02*
X113265000Y-59750000D01*
D29*
%TO.N,/mixer/LO_I_EXT*%
X112120000Y-119320000D02*
X112120000Y-125429994D01*
D30*
X107550000Y-130000000D02*
X108550000Y-129000000D01*
X55700000Y-130000000D02*
X107550000Y-130000000D01*
X111449994Y-126100000D02*
X112120000Y-125429994D01*
X112120000Y-125429994D02*
X112120000Y-119350000D01*
%TO.N,/mixer/LO_Q_EXT*%
X112120000Y-145100000D02*
X112120000Y-146195000D01*
X112120000Y-146195000D02*
X110115000Y-148200000D01*
X63907500Y-148207500D02*
X60707500Y-148207500D01*
X63915000Y-148200000D02*
X63907500Y-148207500D01*
X110115000Y-148200000D02*
X63915000Y-148200000D01*
D29*
X60707500Y-148207500D02*
X60750000Y-148250000D01*
D30*
X57500000Y-145000000D02*
X60707500Y-148207500D01*
X55600000Y-145000000D02*
X57500000Y-145000000D01*
D29*
%TO.N,/mixer/LO_Q*%
X115825000Y-144590000D02*
X115917000Y-144498000D01*
D30*
X115735000Y-144680000D02*
X115917000Y-144498000D01*
X112300000Y-144680000D02*
X115735000Y-144680000D01*
%TO.N,/mixer/LO_I*%
X115749000Y-118930000D02*
X115917000Y-119098000D01*
X112300000Y-118930000D02*
X115749000Y-118930000D01*
%TO.N,Net-(JP5-Pad1)*%
X112120000Y-129570000D02*
X112120000Y-144250000D01*
X108550000Y-126000000D02*
X112120000Y-129570000D01*
D29*
%TO.N,Net-(J1-Pad6)*%
X110198000Y-91859200D02*
X107912000Y-89573200D01*
X110198000Y-99987200D02*
X110198000Y-91859200D01*
X107912000Y-89573200D02*
X107912000Y-86271200D01*
X111214000Y-101003200D02*
X110198000Y-99987200D01*
X111214000Y-104559200D02*
X111214000Y-101003200D01*
%TO.N,Net-(J1-Pad5)*%
X105626000Y-90081200D02*
X105626000Y-86271200D01*
%TD*%
M02*
